# xmcd
#
# Track frame offsets: 
#        150
#        18741
#        39195
#        56233
#        78449
#        98459
#        114895
#        131897
#        153532
#        172859
#        197617
#
# Disc length: 2968 seconds
#
# Revision: 4
# Processed by: cddbd v1.5.2PL0 Copyright (c) Steve Scherf et al.
# Submitted via: ExactAudioCopy v0.99pb4
#
DISCID=830b960b
DTITLE=U2 - All That You Can't Leave Behind
DYEAR=2000
DGENRE=Rock
TTITLE0=Beautiful Day
TTITLE1=Stuck in a Moment You Can't Get Out Of
TTITLE2=Elevation
TTITLE3=Walk On
TTITLE4=Kite
TTITLE5=In a Little While
TTITLE6=Wild Honey
TTITLE7=Peace on Earth
TTITLE8=When I Look at the World
TTITLE9=New York
TTITLE10=Grace
EXTD=\nYEAR: 2000  ID3G:  17
EXTT0=
EXTT1=
EXTT2=
EXTT3=
EXTT4=
EXTT5=
EXTT6=
EXTT7=
EXTT8=
EXTT9=
EXTT10=
PLAYORDER=
